P3
# encoded/decoded image
8 8
255
2
2
2
0
0
0
0
51
0
73
197
73
79
194
87
0
46
0
8
8
8
8
8
8
3
3
3
3
3
3
0
53
0
71
195
71
79
194
87
0
59
0
8
8
8
18
18
18
2
2
2
3
3
3
0
52
0
75
198
78
83
186
85
0
55
0
16
16
16
18
18
18
2
2
2
2
2
2
0
52
0
67
190
70
87
190
89
0
65
0
0
0
0
3
3
3
2
2
2
2
2
2
0
50
0
62
170
83
67
167
81
0
79
0
5
5
5
4
4
4
8
8
8
2
2
2
0
60
0
62
170
83
67
167
81
0
41
0
38
38
38
17
17
17
8
8
8
24
24
24
0
42
0
77
166
64
66
166
90
0
70
0
32
32
32
8
8
8
12
12
12
17
17
17
0
52
0
77
166
64
66
166
90
0
46
0
5
5
5
8
8
8
